<svg xmlns="http://www.w3.org/2000/svg" viewBox="0 0 1200 630" width="1200" height="630">
  <defs>
    <linearGradient id="bg" x1="0%" y1="0%" x2="100%" y2="100%">
      <stop offset="0%" stop-color="#ffffff"/>
      <stop offset="100%" stop-color="#fff1f2"/>
    </linearGradient>
  </defs>

  <rect width="1200" height="630" fill="url(#bg)"/>

  <g transform="translate(60 60) scale(2.1875)">
    <rect width="64" height="64" rx="14" fill="#0a0a0a"/>
    <path d="M16 16 H46 V24 H26 V30 H18 Z" fill="#ffffff"/>
    <path d="M48 48 H18 V40 H38 V34 H46 Z" fill="#ffffff"/>
    <path d="M14 42 L50 18 L53 24 L17 48 Z" fill="#E63946"/>
  </g>

  <text x="240" y="120" font-family="'Plus Jakarta Sans', system-ui, sans-serif" font-size="22" font-weight="700" fill="#0a0a0a" letter-spacing="4">THE</text>
  <text x="240" y="175" font-family="'Plus Jakarta Sans', system-ui, sans-serif" font-size="44" font-weight="900" fill="#0a0a0a" letter-spacing="-0.5">
    SUPER<tspan fill="#E63946">FUNDED</tspan>
  </text>

  <text x="60" y="340" font-family="Impact, 'Bebas Neue', sans-serif" font-size="110" font-weight="900" fill="#0a0a0a" letter-spacing="-2">Pick-uri cu</text>
  <text x="60" y="450" font-family="Impact, 'Bebas Neue', sans-serif" font-size="110" font-weight="900" fill="#E63946" letter-spacing="-2">capitalul NOSTRU.</text>

  <text x="60" y="510" font-family="'Plus Jakarta Sans', system-ui, sans-serif" font-size="26" font-weight="500" fill="#475569">Cont finantat pana la €50.000 · Profit split 80% · Retrageri in 24-48h</text>

  <g transform="translate(60, 555)">
    <rect width="190" height="46" rx="23" fill="#ffffff" stroke="#E63946" stroke-width="2"/>
    <text x="95" y="30" font-family="'Plus Jakarta Sans', system-ui, sans-serif" font-size="16" font-weight="700" fill="#E63946" text-anchor="middle">9 SPORTURI</text>
  </g>
  <g transform="translate(270, 555)">
    <rect width="220" height="46" rx="23" fill="#ffffff" stroke="#E63946" stroke-width="2"/>
    <text x="110" y="30" font-family="'Plus Jakarta Sans', system-ui, sans-serif" font-size="16" font-weight="700" fill="#E63946" text-anchor="middle">RETRAGERI 24-48H</text>
  </g>
  <g transform="translate(510, 555)">
    <rect width="220" height="46" rx="23" fill="#0a0a0a"/>
    <text x="110" y="30" font-family="'Plus Jakarta Sans', system-ui, sans-serif" font-size="16" font-weight="700" fill="#ffffff" text-anchor="middle">SPLIT 80%</text>
  </g>

  <text x="60" y="610" font-family="'JetBrains Mono', monospace" font-size="20" font-weight="600" fill="#64748b">thesuperfunded.com</text>
</svg>
